<?xml version="1.0" standalone="no"?>
<!DOCTYPE svg PUBLIC "-//W3C//DTD SVG 20010904//EN"
 "http://www.w3.org/TR/2001/REC-SVG-20010904/DTD/svg10.dtd">
<svg version="1.0" xmlns="http://www.w3.org/2000/svg"
 width="3333.000000pt" height="3333.000000pt" viewBox="0 0 3333.000000 3333.000000"
 preserveAspectRatio="xMidYMid meet">

<g transform="translate(0.000000,3333.000000) scale(0.100000,-0.100000)"
fill="#000000" stroke="none">
<path d="M24375 27723 c-528 -44 -1010 -188 -1438 -427 -303 -170 -367 -237
-367 -386 0 -43 7 -71 31 -119 45 -89 119 -139 219 -148 67 -6 113 6 192 53
31 19 86 42 122 51 58 14 76 14 139 3 85 -15 222 -82 316 -154 76 -59 238
-212 231 -219 -3 -3 -63 8 -135 24 -188 41 -427 77 -610 90 -178 13 -610 7
-795 -11 -405 -39 -804 -121 -1175 -241 -84 -27 -157 -49 -162 -49 -5 0 -23
20 -40 44 -105 149 -337 137 -431 -23 -24 -41 -27 -56 -27 -140 -1 -133 11
-129 -292 -91 -1339 171 -2729 507 -3948 955 -89 33 -108 36 -171 32 -87 -5
-150 -39 -194 -105 -31 -47 -55 -139 -45 -172 4 -13 2 -20 -7 -20 -30 -1 -231
-32 -328 -51 -274 -54 -584 -141 -1061 -298 -184 -60 -415 -133 -514 -161
-409 -117 -872 -270 -1274 -421 -101 -38 -190 -69 -197 -69 -7 0 -84 41 -171
91 -330 190 -733 373 -1038 472 -362 117 -630 165 -986 174 -257 7 -434 -5
-664 -44 -867 -145 -1675 -612 -2204 -1273 -137 -171 -278 -392 -291 -456 -40
-193 139 -370 330 -324 68 16 133 62 170 119 42 66 120 137 176 162 112 47
265 46 459 -6 99 -26 265 -87 250 -91 -6 -2 -75 -17 -155 -35 -607 -131 -1261
-443 -1847 -882 -377 -282 -763 -668 -1040 -1040 -295 -397 -541 -861 -702
-1330 -161 -469 -246 -941 -258 -1447 -12 -528 58 -1016 217 -1503 l39 -121
-29 -116 c-16 -63 -61 -254 -100 -425 -90 -392 -120 -512 -176 -705 -92 -316
-208 -584 -340 -783 -82 -124 -272 -318 -389 -396 -44 -30 -91 -64 -104 -75
-38 -34 -71 -114 -71 -175 0 -115 38 -174 167 -257 l82 -54 -24 -42 c-55 -96
-70 -162 -69 -308 1 -210 8 -229 274 -802 l157 -337 -41 -6 c-59 -10 -97 -28
-140 -65 -84 -74 -105 -176 -61 -305 85 -255 356 -898 548 -1301 217 -457 539
-1041 814 -1476 l18 -28 -102 -197 c-184 -359 -307 -651 -376 -894 -72 -253
-92 -389 -91 -634 0 -177 4 -215 27 -326 110 -523 419 -897 861 -1043 105 -35
247 -63 381 -76 269 -25 1056 -6 1906 46 l107 7 173 -110 c372 -235 830 -498
1186 -680 l222 -114 -43 -43 c-115 -114 -95 -305 41 -395 60 -40 102 -45 276
-32 103 8 189 8 292 1 401 -29 749 -127 1520 -430 545 -214 831 -311 1127
-385 312 -77 678 -131 1031 -154 82 -5 150 -11 151 -13 2 -1 46 -91 99 -198
183 -374 359 -589 596 -730 394 -234 939 -232 1410 5 351 176 670 463 1064
960 l119 150 92 5 91 5 52 -48 c71 -65 160 -105 264 -119 69 -9 110 -8 229 6
442 53 996 167 1464 302 l191 55 30 -38 c249 -312 486 -563 631 -665 166 -118
340 -193 518 -224 138 -24 397 -15 533 20 456 115 830 408 1130 886 188 299
424 820 597 1320 32 91 61 175 66 187 10 25 209 159 390 263 162 93 483 251
895 440 400 184 708 340 910 461 748 450 1360 1080 1801 1855 l88 155 35 -35
c59 -56 97 -71 181 -71 142 0 191 47 319 304 309 623 519 1431 596 2301 34
377 30 928 -9 1265 -7 61 -12 111 -11 113 1 1 21 -5 45 -13 79 -28 163 -15
237 36 94 65 115 151 116 464 0 289 -30 504 -108 775 -67 231 -176 478 -299
678 -32 51 -56 94 -55 96 2 1 38 24 79 51 135 88 286 257 343 383 77 174 -81
562 -324 797 -102 98 -167 138 -259 156 l-57 11 -7 122 c-9 166 -42 480 -69
665 l-23 153 34 47 c19 25 57 63 83 84 57 44 96 99 112 159 7 24 43 90 81 148
289 440 550 983 711 1480 130 400 212 787 260 1230 22 199 31 691 16 905 -78
1110 -491 2228 -1235 3339 -409 612 -796 1043 -1213 1353 -509 379 -1106 601
-1778 663 -100 9 -494 11 -590 3z m-7504 -1557 c1160 -357 2283 -592 3499
-731 293 -33 438 -41 480 -26 32 11 35 10 99 -49 100 -91 294 -247 409 -329
226 -160 457 -298 992 -591 550 -303 846 -488 1192 -748 341 -256 590 -476
923 -814 796 -806 1389 -1717 1799 -2764 74 -189 101 -230 178 -268 97 -48
231 -26 299 50 43 49 48 59 63 115 l14 54 51 -108 c287 -607 513 -1483 585
-2267 20 -207 36 -517 36 -679 0 -146 10 -187 62 -246 105 -120 281 -119 387
1 l40 45 40 -53 c39 -52 101 -171 101 -195 0 -18 -98 -99 -160 -132 -61 -32
-162 -61 -220 -61 -49 0 -130 -41 -164 -81 -51 -60 -69 -114 -64 -190 6 -81
18 -103 128 -234 206 -245 360 -545 445 -866 19 -74 35 -137 35 -141 0 -4 -25
4 -56 18 -73 32 -190 64 -235 64 -90 0 -183 -58 -225 -142 -38 -75 -35 -137
14 -288 221 -681 248 -1580 77 -2561 -60 -340 -177 -780 -284 -1061 l-22 -56
-48 48 c-89 89 -226 102 -326 32 -55 -38 -73 -68 -139 -233 -310 -767 -839
-1448 -1516 -1951 -307 -228 -581 -378 -1275 -698 -814 -376 -1150 -570 -1490
-861 -49 -42 -99 -86 -109 -98 l-19 -21 -19 42 c-38 85 -113 141 -204 153 -68
9 -127 -9 -204 -62 -588 -407 -1117 -700 -1745 -968 -648 -276 -1381 -490
-2073 -604 -289 -48 -257 -47 -272 -11 -21 51 -94 116 -158 140 -47 18 -71 21
-134 17 l-77 -5 10 25 c5 13 9 50 9 81 0 102 -66 200 -159 239 -78 33 -201 12
-267 -44 -12 -10 -70 -88 -130 -173 -210 -303 -476 -645 -625 -804 l-74 -79
-125 17 c-808 109 -1371 235 -1830 409 l-115 44 -62 142 c-154 352 -335 807
-499 1251 -52 140 -107 273 -122 295 -79 114 -250 139 -364 52 -102 -78 -126
-193 -71 -347 113 -313 324 -858 462 -1187 28 -68 51 -124 51 -126 0 -13 -428
45 -619 84 -347 70 -607 154 -1226 394 -573 222 -807 304 -1027 360 -149 38
-138 33 -138 69 0 53 -29 123 -69 164 -59 61 -102 77 -211 79 -82 1 -111 7
-210 42 -285 98 -792 354 -1353 683 -181 106 -189 112 -182 137 3 14 9 56 12
92 4 53 1 75 -17 117 -25 58 -80 113 -137 138 -44 19 -130 16 -523 -15 -299
-24 -739 -49 -1079 -60 l-255 -9 -66 59 c-187 168 -513 552 -757 894 -169 237
-483 715 -483 735 0 45 287 623 446 900 169 295 164 283 164 359 0 196 -195
318 -372 233 -24 -12 -47 -22 -50 -22 -7 0 -157 253 -278 470 -134 239 -332
630 -458 900 -99 213 -272 609 -272 623 0 3 26 9 58 13 85 10 127 31 176 85
55 62 69 102 64 187 -4 63 -21 103 -297 697 -355 761 -373 807 -353 880 l9 30
80 -4 c64 -2 90 1 124 16 65 29 105 67 135 128 22 47 26 65 22 124 -6 110 -34
147 -196 254 l-133 88 82 91 c358 399 540 827 765 1797 4 20 14 9 66 -75 395
-644 934 -1202 1588 -1646 1200 -816 2698 -1147 4223 -932 159 22 186 24 265
13 117 -16 315 -6 417 21 127 33 241 92 335 175 25 22 79 47 190 85 636 218
1232 552 1705 955 654 557 1215 1438 1536 2410 50 151 136 459 159 570 7 33
26 84 44 115 30 53 31 60 32 175 0 66 8 170 17 230 67 448 80 1032 32 1492
-99 948 -397 1800 -892 2551 -351 532 -832 1051 -1388 1498 -96 77 -373 286
-405 305 -13 7 -13 10 0 18 25 17 758 258 960 316 107 30 326 98 485 150 878
285 1248 375 1548 375 121 0 164 -10 229 -56 62 -42 118 -58 186 -51 91 10
186 83 213 165 7 20 16 31 24 29 7 -3 122 -39 256 -81z m5138 -19748 c16 -165
51 -228 151 -276 l60 -28 -68 -135 -67 -134 -120 -17 c-467 -67 -829 -99
-1200 -104 l-310 -5 140 61 c361 157 932 457 1270 668 71 44 130 80 131 79 1
-1 7 -50 13 -109z"/>
<path d="M25163 15850 c-612 -51 -1146 -468 -1339 -1047 -154 -458 -89 -963
173 -1355 234 -351 575 -580 996 -669 140 -30 425 -33 572 -5 321 60 590 201
821 431 381 379 537 907 423 1431 -127 588 -595 1056 -1183 1183 -87 19 -299
43 -351 39 -11 0 -61 -4 -112 -8z"/>
<path d="M15805 14694 c-498 -53 -934 -330 -1185 -751 -191 -321 -261 -707
-195 -1078 85 -481 423 -917 870 -1126 427 -199 931 -192 1350 18 445 224 753
638 837 1128 29 169 22 450 -15 605 -71 299 -202 535 -417 751 -288 289 -650
445 -1055 454 -82 2 -168 1 -190 -1z"/>
<path d="M22648 13134 c-31 -16 -58 -61 -58 -94 0 -47 30 -87 85 -115 195 -98
259 -374 122 -523 -123 -133 -347 -145 -479 -24 -55 50 -78 62 -123 62 -29 0
-45 -8 -71 -34 -19 -19 -34 -41 -34 -50 0 -21 -92 -22 -167 -2 -208 56 -371
200 -583 521 -40 61 -82 118 -94 127 -13 11 -39 18 -68 18 -39 0 -52 -5 -78
-32 -29 -29 -31 -35 -27 -82 3 -28 10 -74 17 -102 30 -125 -72 -291 -207 -340
-21 -7 -48 -13 -61 -14 -40 0 -60 -18 -118 -106 -164 -249 -456 -424 -714
-427 -106 -1 -154 17 -175 67 -21 50 -59 76 -112 76 -37 0 -49 -5 -74 -32 -82
-90 -103 -108 -146 -122 -104 -35 -205 -7 -281 79 -61 70 -85 141 -80 240 6
107 44 188 132 278 35 36 67 75 71 87 18 57 -26 132 -86 145 -49 11 -94 -12
-161 -84 -118 -126 -176 -256 -185 -416 -15 -275 167 -519 422 -566 108 -20
240 5 329 62 l50 31 48 -23 48 -22 -8 -86 c-14 -167 -8 -577 11 -701 59 -383
188 -656 421 -885 298 -296 716 -462 1266 -506 612 -48 1305 149 1781 507 406
307 502 700 279 1144 -122 243 -370 577 -617 831 l-103 106 56 38 c152 105
233 275 221 466 -13 214 -130 403 -301 489 -65 33 -107 37 -148 14z m-1467
-839 c105 -13 229 -100 313 -219 94 -131 138 -243 221 -556 113 -427 215 -630
317 -630 63 0 118 54 118 115 0 14 -24 72 -54 128 -65 122 -88 190 -161 459
-79 296 -130 432 -211 560 l-25 39 38 -17 c98 -42 160 -56 284 -61 111 -5 131
-3 170 14 44 20 46 20 80 2 53 -29 147 -56 221 -64 66 -6 69 -8 141 -75 280
-261 635 -733 733 -975 154 -376 21 -644 -454 -922 -265 -154 -581 -261 -917
-309 -146 -21 -476 -24 -615 -6 -502 66 -890 255 -1105 539 -123 163 -201 352
-247 603 -20 102 -22 150 -22 415 1 193 4 309 11 326 10 23 19 27 70 32 152
16 376 109 519 215 88 66 226 206 270 276 24 38 37 48 79 61 28 8 68 26 90 39
24 14 50 23 65 21 14 -2 46 -7 71 -10z"/>
</g>
</svg>
